<svg xmlns="http://www.w3.org/2000/svg" viewBox="0 0 277 462"><defs><style>.cls-1{fill:#0b233d;}.cls-2,.cls-3,.cls-4{fill:#fff;}.cls-2{opacity:0.2;}.cls-3{isolation:isolate;font-size:16px;}.cls-3,.cls-5,.cls-6,.cls-7{font-family:Menlo-Regular, Menlo;}.cls-5,.cls-6,.cls-7{font-size:13px;}.cls-5{fill:#c13b67;}.cls-6{fill:#a3a3a3;}.cls-7{fill:#6bafc2;}.cls-8{fill:#fef084;}</style></defs><title>Asset 1</title><g id="Layer_2" data-name="Layer 2"><g id="Layer_1-2" data-name="Layer 1"><path class="cls-1" d="M30,0H247a30,30,0,0,1,30,30V432a30,30,0,0,1-30,30H30A30,30,0,0,1,0,432V30A30,30,0,0,1,30,0Zm89.5,26a5.5,5.5,0,0,0,0,11h39a5.5,5.5,0,0,0,0-11Z"/><rect class="cls-2" x="18" y="86" width="241" height="56" rx="4.77"/><g id="live.tamuhack.com"><text class="cls-3" transform="translate(56.62 119.78)">live.tamuhack.com</text></g><path class="cls-4" d="M205.62,194.63h11.87a4,4,0,0,1,4,4v12a4,4,0,0,1-4,4H205.62a4,4,0,0,1-4-4v-12A4,4,0,0,1,205.62,194.63Z"/><text class="cls-5" transform="translate(42 208.97) scale(0.99 1)">let <tspan class="cls-4" x="31.31" y="0">lunch_sat </tspan><tspan x="109.57" y="0">= </tspan></text><path class="cls-4" d="M205.62,221.65h11.87a4,4,0,0,1,4,4v12a4,4,0,0,1-4,4H205.62a4,4,0,0,1-4-4v-12A4,4,0,0,1,205.62,221.65Z"/><text class="cls-5" transform="translate(42 235.99) scale(0.99 1)">let <tspan class="cls-4" x="31.31" y="0">dinner </tspan><tspan x="86.09" y="0">= </tspan></text><text class="cls-6" transform="translate(18.17 209) scale(0.99 1)">1</text><text class="cls-6" transform="translate(18.17 236) scale(0.99 1)">2</text><text class="cls-6" transform="translate(18.17 263) scale(0.99 1)">3</text><text class="cls-6" transform="translate(18.17 290) scale(0.99 1)">4</text><text class="cls-6" transform="translate(18.17 317) scale(0.99 1)">5</text><text class="cls-6" transform="translate(18.17 344) scale(0.99 1)">6</text><text class="cls-6" transform="translate(18.17 371) scale(0.99 1)">7</text><path class="cls-4" d="M205.62,248.68h11.87a4,4,0,0,1,4,4v12a4,4,0,0,1-4,4H205.62a4,4,0,0,1-4-4v-12A4,4,0,0,1,205.62,248.68Z"/><text class="cls-5" transform="translate(42 263.01) scale(0.99 1)">let <tspan class="cls-4" x="31.31" y="0">breakfast </tspan><tspan x="109.57" y="0">= </tspan></text><path class="cls-4" d="M205.62,275.7h11.87a4,4,0,0,1,4,4v12a4,4,0,0,1-4,4H205.62a4,4,0,0,1-4-4v-12A4,4,0,0,1,205.62,275.7Z"/><text class="cls-5" transform="translate(42 290.04) scale(0.99 1)">let <tspan class="cls-4" x="31.31" y="0">lunch_sun </tspan><tspan x="109.57" y="0">= </tspan></text><text class="cls-7" transform="translate(42 343.92) scale(0.99 1)">print<tspan class="cls-4" x="39.13" y="0">(</tspan><tspan class="cls-8" x="46.96" y="0">“Hello from TAMUhack”</tspan><tspan class="cls-4" x="211.32" y="0">)</tspan></text></g></g></svg>