<svg xmlns="http://www.w3.org/2000/svg" xmlns:xlink="http://www.w3.org/1999/xlink" viewBox="0 0 313 497"><defs><style>.cls-1{fill:none;}.cls-2{clip-path:url(#clip-path);}.cls-3,.cls-5,.cls-8,.cls-9{fill:#fff;}.cls-4{fill:#0b233d;}.cls-5{opacity:0.2;}.cls-6{fill:#3e688b;}.cls-7{fill:#f27c92;}.cls-8{font-size:12px;}.cls-10,.cls-8{font-family:Menlo-Regular, Menlo;}.cls-9{font-size:30px;font-family:Menlo-Bold, Menlo;font-weight:700;}.cls-10{font-size:20px;fill:#a0a1a5;}</style><clipPath id="clip-path"><rect class="cls-1" x="13.41" width="277" height="462" rx="30"/></clipPath></defs><title>Asset 2</title><g id="Layer_2" data-name="Layer 2"><g id="Layer_1-2" data-name="Layer 1"><g class="cls-2"><path class="cls-3" d="M260.41,0h-217a30,30,0,0,0-30,30V432a30,30,0,0,0,30,30h217a30,30,0,0,0,30-30V30A30,30,0,0,0,260.41,0Zm-89,27h-39a5.5,5.5,0,0,1,0-11h39a5.5,5.5,0,0,1,0,11Z"/><rect class="cls-4" y="274" width="313" height="223"/></g><rect class="cls-5" x="31.41" y="375" width="241" height="56" rx="4.77"/><path class="cls-6" d="M78.52,315.29v13.63a.51.51,0,0,1-.51.51H74.72a.51.51,0,0,1-.51-.51V315.29a.51.51,0,0,0-.51-.51H70.9a.51.51,0,0,1-.51-.51v-3a.51.51,0,0,1,.51-.52h2.8a.51.51,0,0,0,.51-.51v-5.82a.51.51,0,0,1,.51-.51H78a.51.51,0,0,1,.51.51v5.82a.51.51,0,0,0,.52.51h3.29a.52.52,0,0,1,.52.52v3a.51.51,0,0,1-.52.51H79A.51.51,0,0,0,78.52,315.29Z"/><path class="cls-6" d="M99.94,310.75h3.31a.51.51,0,0,1,.51.52v17.65a.51.51,0,0,1-.51.51H99.94a.51.51,0,0,1-.51-.51v-.34a.51.51,0,0,0-.82-.4A7.9,7.9,0,0,1,93.7,330a8.23,8.23,0,0,1-6.4-2.8A10.38,10.38,0,0,1,84.78,320a10.08,10.08,0,0,1,2.52-7,8.1,8.1,0,0,1,6.28-2.79,7.64,7.64,0,0,1,5,1.89.51.51,0,0,0,.84-.39v-.47A.51.51,0,0,1,99.94,310.75ZM89.19,320a6.49,6.49,0,0,0,1.44,4.37,4.72,4.72,0,0,0,3.72,1.71,4.93,4.93,0,0,0,3.87-1.65,7.07,7.07,0,0,0,0-8.66,4.84,4.84,0,0,0-3.83-1.67,4.79,4.79,0,0,0-3.72,1.68A6.26,6.26,0,0,0,89.19,320Z"/><path class="cls-6" d="M107.94,310.75h3.29a.51.51,0,0,1,.51.52h0a.51.51,0,0,0,.86.37,6.93,6.93,0,0,1,1.27-.93,5.33,5.33,0,0,1,2.36-.47,5.61,5.61,0,0,1,4.62,2.23.51.51,0,0,0,.79,0,6.48,6.48,0,0,1,5.1-2.24q6.3,0,6.31,7.65v11a.51.51,0,0,1-.52.51h-3.3a.51.51,0,0,1-.52-.51v-9.87a7.93,7.93,0,0,0-.65-3.79,2.35,2.35,0,0,0-2.2-1.13,2.8,2.8,0,0,0-2.6,1.34,8.53,8.53,0,0,0-.82,4.31v9.14a.51.51,0,0,1-.51.51h-3.31a.51.51,0,0,1-.51-.51v-9.81q0-5-2.88-5a2.87,2.87,0,0,0-2.65,1.36,8.44,8.44,0,0,0-.84,4.29v9.14a.51.51,0,0,1-.51.51h-3.29a.51.51,0,0,1-.51-.51V311.27A.51.51,0,0,1,107.94,310.75Z"/><path class="cls-6" d="M140.77,310.75a.51.51,0,0,1,.51.52v10.2q0,4.63,3.66,4.64t3.66-4.64v-10.2a.52.52,0,0,1,.52-.52h3.29a.51.51,0,0,1,.51.52v10.3a12.06,12.06,0,0,1-.56,3.87,6.57,6.57,0,0,1-1.86,2.63,9.09,9.09,0,0,1-11.1,0,6.68,6.68,0,0,1-1.9-2.63,10.65,10.65,0,0,1-.53-3.87v-10.3a.51.51,0,0,1,.51-.52Z"/><path class="cls-7" d="M158.11,297h3.29a.51.51,0,0,1,.51.52v13.68a.52.52,0,0,0,.82.41,7.17,7.17,0,0,1,4.27-1.41,6.57,6.57,0,0,1,5.06,2.05c1.07,1.19,1.61,3.08,1.61,5.69v10.94a.51.51,0,0,1-.51.51h-3.29a.51.51,0,0,1-.52-.51V318.38a5.28,5.28,0,0,0-.79-3.25,3.07,3.07,0,0,0-2.56-1,3.49,3.49,0,0,0-3.18,1.4c-.61.94-.91,2.57-.91,4.87v8.52a.51.51,0,0,1-.51.51h-3.29a.51.51,0,0,1-.51-.51V297.56A.51.51,0,0,1,158.11,297Z"/><path class="cls-7" d="M191.89,310.75h3.3a.52.52,0,0,1,.52.52v17.65a.51.51,0,0,1-.52.51h-3.3a.51.51,0,0,1-.52-.51v-.34a.51.51,0,0,0-.82-.4,7.9,7.9,0,0,1-4.91,1.78,8.23,8.23,0,0,1-6.4-2.8,10.38,10.38,0,0,1-2.52-7.13,10.08,10.08,0,0,1,2.52-7,8.1,8.1,0,0,1,6.29-2.79,7.63,7.63,0,0,1,5,1.89.51.51,0,0,0,.84-.39v-.47A.52.52,0,0,1,191.89,310.75ZM181.13,320a6.49,6.49,0,0,0,1.44,4.37,4.72,4.72,0,0,0,3.72,1.71,5,5,0,0,0,3.88-1.65,7.11,7.11,0,0,0,0-8.66,4.88,4.88,0,0,0-3.84-1.67,4.79,4.79,0,0,0-3.72,1.68A6.26,6.26,0,0,0,181.13,320Z"/><path class="cls-7" d="M214.41,311.87v4.06a.51.51,0,0,1-.88.35,8.13,8.13,0,0,0-1.76-1.46,5.18,5.18,0,0,0-2.71-.69,5.34,5.34,0,0,0-4,1.7,6,6,0,0,0-1.61,4.28,6.13,6.13,0,0,0,1.55,4.31,5.23,5.23,0,0,0,4,1.69,5.45,5.45,0,0,0,2.74-.67,8.12,8.12,0,0,0,1.82-1.53.51.51,0,0,1,.88.35v4a.53.53,0,0,1-.28.46,11.22,11.22,0,0,1-5,1.21,10.05,10.05,0,0,1-7.25-2.8,9.33,9.33,0,0,1-2.91-7,9.47,9.47,0,0,1,2.95-7.06,10,10,0,0,1,7.25-2.87,10.88,10.88,0,0,1,4.94,1.17A.52.52,0,0,1,214.41,311.87Z"/><path class="cls-7" d="M222.24,297.56v18a.51.51,0,0,0,.87.36l5-5a.55.55,0,0,1,.36-.15h3.64a.51.51,0,0,1,.37.87l-6.25,6.66a.54.54,0,0,0,0,.66l7.1,9.67a.52.52,0,0,1-.42.82h-3.57a.48.48,0,0,1-.4-.2L223.28,322a.51.51,0,0,0-.76,0l-.13.13a.48.48,0,0,0-.15.36v6.47a.51.51,0,0,1-.52.51h-3.29a.51.51,0,0,1-.51-.51V297.56a.51.51,0,0,1,.51-.52h3.29A.52.52,0,0,1,222.24,297.56Z"/><text class="cls-8" transform="translate(112.18 351.5)">SPRING 2019</text><text class="cls-9" transform="translate(98.32 413.48) scale(0.99 1)">HACKER</text><text class="cls-10" transform="translate(38.76 65.69) scale(0.99 1)">//declare name here</text></g></g></svg>