<?xml version="1.0" encoding="utf-8"?>
<!-- Generator: Adobe Illustrator 21.1.0, SVG Export Plug-In . SVG Version: 6.00 Build 0)  -->
<svg version="1.1" id="Layer_1" xmlns="http://www.w3.org/2000/svg" xmlns:xlink="http://www.w3.org/1999/xlink" x="0px" y="0px"
	 viewBox="0 0 600 536.3" style="enable-background:new 0 0 600 536.3;" xml:space="preserve">
<style type="text/css">
	.st0{fill:none;stroke:#16232E;stroke-width:36.7763;stroke-miterlimit:10;}
	.st1{fill:#16232E;}
</style>
<path class="st0" d="M578.9,150.2c-5.5-56.6-65.5-131.1-154.9-131.1S300.8,79.7,300.8,79.7S267,19.1,177.6,19.1
	S30.1,95.1,22.7,150.2c-7.3,54.2-13.9,108.3,92.4,214.5s185.7,149,185.7,149s79.5-42.7,185.7-149S584.2,205.5,578.9,150.2z"/>
<path class="st1" d="M213.9,22.7C108.4-6.5,46.1,103.8,46.1,103.8s29.6,5.1,32.7,20.4c3.1,15.3-2,78.7,63.3,109.3
	c0,0,10.2,49,57.2,46c0,0,29.6-10.2,38.8,14.3c9.2,24.5,20.4,12.3,19.4,5.1c-1-7.2-22.5-50.1-62.3-52.1c-39.8-2-8.2-34.7,15.3-29.6
	c23.5,5.1,31.6,20.4,44.9,20.4c7.7,0,18.2-3.2,13.3-11.2c-12.9-20.9-26.6-40.9-9.2-41.9c35.3-2,76.6-49,76.6-60.3s-17.4-17.4,0-30.6
	C353.6,80.3,266.3,37.3,213.9,22.7z M225.9,140.6c-14.3,7.2-11.2-18.4-27-37.8c-9.5-11.7,7.1-26.6,23.3-20.4
	c10.7,4.1,21.3,27.5,24.1,30.7C253.4,121.4,240.2,133.4,225.9,140.6z"/>
<path class="st1" d="M541.4,72.2c0,0-9.1,105.1-57.1,131.7c-12.8,7.1-22.5,13.3-19.4,25.5c3.1,12.3,10.2,60.3,6.1,66.4
	s4.8,16,14.3,17.4c14.3,2,56.1-11.8,56.1-11.8S629.4,138.5,541.4,72.2z"/>
<path class="st1" d="M288.2,285.6c20.4,4.1,23.2,0,37.7,10.2c14.4,10.2,28.7,35.8,47.1,37.8c18.4,2,33.7-11.2,38.8,0
	s4.1,28.6-4.1,43.9c-8.2,15.3-9.2,27.6-9.2,38.8s-6.6,33.6-6.6,33.6l-66,48.4l-40.8,6c0,0,24.2-95.9,15.7-112.3
	c-8.5-16.5-57.5-26.7-43.2-61.4s11.1-22.2,14.3-34.7C274.8,284.3,288.2,285.6,288.2,285.6z"/>
</svg>
